<?xml version="1.0" encoding="iso-8859-1"?>
<!-- Uploaded to: SVG Repo, www.svgrepo.com, Generator: SVG Repo Mixer Tools -->
<svg height="800px" width="800px" version="1.1" id="Layer_1" xmlns="http://www.w3.org/2000/svg" xmlns:xlink="http://www.w3.org/1999/xlink" 
	 viewBox="0 0 512 512" xml:space="preserve">
<path d="M256,0C114.616,0,0,114.616,0,256s114.616,256,256,256s256-114.616,256-256S397.384,0,256,0z"/>
<path style="fill:#E21B1B;" d="M426.384,321.912H233.28c-7.352,0-13.368-6.016-13.368-13.368V203.368
	c0-7.352,6.016-13.368,13.368-13.368h193.112c7.352,0,13.368,6.016,13.368,13.368v105.176
	C439.752,315.896,433.736,321.912,426.384,321.912z"/>
<g>
	<path style="fill:#FFFFFF;" d="M260.232,241.272h-15.608v-8.344h41.392v8.344H270.24v46.424h-10.008V241.272z"/>
	<path style="fill:#FFFFFF;" d="M323.408,275.816c0,4.712,0.168,8.64,0.32,11.872h-8.784l-0.488-6.032h-0.144
		c-1.72,2.848-5.616,6.92-12.688,6.92c-7.24,0-13.816-4.32-13.816-17.224v-23.256h9.984v21.544c0,6.576,2.136,10.848,7.408,10.848
		c3.976,0,6.576-2.848,7.632-5.4c0.344-0.88,0.568-1.912,0.568-3.088v-23.896h10.008L323.408,275.816L323.408,275.816z"/>
	<path style="fill:#FFFFFF;" d="M333.888,287.688c0.168-2.696,0.344-7.064,0.344-11.136v-46.568h9.984v23.552h0.168
		c2.432-3.776,6.744-6.328,12.664-6.328c9.688,0,16.584,8.048,16.512,20.072c0,14.232-9.032,21.296-17.96,21.296
		c-5.128,0-9.664-1.96-12.512-6.824h-0.168l-0.488,5.936H333.888z M344.216,271.352c0,0.832,0.072,1.616,0.248,2.352
		c1.056,3.976,4.536,7.016,8.856,7.016c6.256,0,10.088-5.056,10.088-13c0-7.016-3.336-12.712-10.008-12.712
		c-4.048,0-7.704,2.944-8.856,7.312c-0.144,0.736-0.32,1.616-0.32,2.6v6.432H344.216z"/>
	<path style="fill:#FFFFFF;" d="M388.848,270.712c0.248,7.168,5.84,10.256,12.192,10.256c4.64,0,7.952-0.688,10.968-1.816
		l1.472,6.92c-3.432,1.376-8.144,2.456-13.84,2.456c-12.832,0-20.392-7.904-20.392-20.024c0-10.944,6.672-21.296,19.336-21.296
		c12.856,0,17.08,10.6,17.08,19.288c0,1.864-0.168,3.336-0.32,4.224h-26.496V270.712z M406.24,263.696
		c0.072-3.632-1.544-9.664-8.216-9.664c-6.184,0-8.784,5.64-9.176,9.664H406.24z"/>
	<path style="fill:#FFFFFF;" d="M89.072,287.688v-22.816l-17.32-31.944h11.384l6.576,14.032c1.888,4.072,3.264,7.168,4.736,10.896
		h0.144c1.4-3.488,2.92-6.92,4.808-10.896l6.576-14.032h11.288l-18.208,31.696v23.064H89.072z"/>
	<path style="fill:#FFFFFF;" d="M152.96,267.52c0,14.576-10.232,21.048-20.312,21.048c-11.216,0-19.824-7.704-19.824-20.368
		c0-13.056,8.536-21,20.488-21C145.088,247.208,152.96,255.496,152.96,267.52z M123.152,267.96c0,7.608,3.728,13.4,9.816,13.4
		c5.696,0,9.688-5.592,9.688-13.592c0-6.184-2.776-13.248-9.592-13.248C126,254.52,123.152,261.336,123.152,267.96z"/>
	<path style="fill:#FFFFFF;" d="M196.608,275.816c0,4.712,0.168,8.64,0.32,11.872h-8.784l-0.488-6.032h-0.144
		c-1.72,2.848-5.616,6.92-12.688,6.92c-7.24,0-13.816-4.32-13.816-17.224v-23.256h9.984v21.544c0,6.576,2.136,10.848,7.408,10.848
		c3.976,0,6.576-2.848,7.632-5.4c0.344-0.88,0.568-1.912,0.568-3.088v-23.896h10.008V275.816z"/>
</g>
<g>
	<g style="opacity:0.2;">
		<path style="fill:#FFFFFF;" d="M219.912,206.928v90.136c0,1.728,0.336,3.36,0.824,4.936l133.072-112H219.992"/>
	</g>
</g>
</svg>